<svg id="Layer_1" data-name="Layer 1" xmlns="http://www.w3.org/2000/svg" viewBox="0 0 103.79 41.96"><title>Eagers_Dots_Logo_D&amp;amp;D</title><path d="M7.06,12.16a6.36,6.36,0,0,0,4.86-1.77L13,11.57A8.42,8.42,0,0,1,7,13.6c-4.34,0-6.83-2.35-6.83-6S2.63,1.52,6.87,1.52c4,0,6.55,2.16,6.55,6a1.4,1.4,0,0,1,0,.37H1.85C2,10.76,4.07,12.16,7.06,12.16ZM1.93,6.52h9.78C11.22,4,9.3,3,6.89,3,4.3,3,2.36,4.16,1.93,6.52Z" transform="translate(-0.1 -1.52)" fill="#1d1d1b"/><path d="M27.33,7v4a4,4,0,0,0,.54,2.18H26.07a3.43,3.43,0,0,1-.47-1.79v0a6.18,6.18,0,0,1-5.08,2.24c-2.45,0-5.72-1-5.72-4s3.27-4,5.72-4A6.12,6.12,0,0,1,25.6,7.88V7c0-2.72-1.54-4-4.63-4a7.79,7.79,0,0,0-4.4,1.3l-.78-1.24a10.46,10.46,0,0,1,5.48-1.52C25,1.54,27.33,3.39,27.33,7ZM25.64,9.4c-1-1.75-3.09-2.37-5-2.37-1.65,0-4.2.47-4.2,2.57s2.55,2.57,4.2,2.57c1.89,0,4-.64,5-2.37Z" transform="translate(-0.1 -1.52)" fill="#1d1d1b"/><path d="M43,11.94c0,4-3,5.76-6.65,5.76a10,10,0,0,1-5.39-1.5l.8-1.3a8.06,8.06,0,0,0,4.43,1.3c3.29,0,5.13-1.34,5.13-4.06V11a6.51,6.51,0,0,1-5.41,2.57c-3.75,0-6.09-2.39-6.09-6a5.68,5.68,0,0,1,6.09-6A6.24,6.24,0,0,1,41.3,4.11V2H43ZM41.3,9.34V5.78a5.31,5.31,0,0,0-5-2.74C33.23,3,31.5,4.67,31.5,7.57s1.73,4.51,4.82,4.51A5.31,5.31,0,0,0,41.3,9.34Z" transform="translate(-0.1 -1.52)" fill="#1d1d1b"/><path d="M52.51,12.16a6.36,6.36,0,0,0,4.86-1.77l1.11,1.17a8.42,8.42,0,0,1-6.05,2c-4.34,0-6.83-2.35-6.83-6s2.49-6.05,6.73-6.05c4,0,6.55,2.16,6.55,6a1.43,1.43,0,0,1,0,.37H47.3C47.47,10.76,49.53,12.16,52.51,12.16ZM47.39,6.52h9.78C56.67,4,54.76,3,52.35,3,49.75,3,47.82,4.16,47.39,6.52Z" transform="translate(-0.1 -1.52)" fill="#1d1d1b"/><path d="M61.36,13.17V2H63V4.71a6,6,0,0,1,5.58-3V3.25c-2.55,0-4.73,1.13-5.58,3.38v6.55Z" transform="translate(-0.1 -1.52)" fill="#1d1d1b"/><path d="M61.36,23.63v-6h2.41V32.89H61.36v-2a6.12,6.12,0,0,1-5.19,2.41,5.71,5.71,0,0,1-6.09-6,5.73,5.73,0,0,1,6.09-6.07A6.08,6.08,0,0,1,61.36,23.63Zm0,5.31V25.56a5.07,5.07,0,0,0-4.57-2.31c-2.8,0-4.36,1.42-4.36,4s1.56,4,4.36,4A5.08,5.08,0,0,0,61.36,28.94Z" transform="translate(-0.1 -1.52)" fill="#1d1d1b"/><path d="M66,27.27c0-3.75,2.65-6.09,7-6.09s7,2.35,7,6.09-2.63,6.05-7,6.05S66,31,66,27.27Zm11.69,0c0-2.74-2-4.08-4.67-4.08s-4.65,1.34-4.65,4.08,2,4,4.65,4S77.74,30,77.74,27.27Z" transform="translate(-0.1 -1.52)" fill="#1d1d1b"/><path d="M90.35,32.25a6.43,6.43,0,0,1-3.48,1c-2.2,0-4-1.17-4-3.52V23.53H80.74V21.61h2.18V19h2.41v2.61h4.92v1.91H85.33v5.87a1.89,1.89,0,0,0,2.14,1.87,4.63,4.63,0,0,0,2.24-.68Z" transform="translate(-0.1 -1.52)" fill="#1d1d1b"/><path d="M103.71,29.58c0,2.1-2.06,3.75-6,3.75A10.33,10.33,0,0,1,90.89,31l1.3-1.42a8.28,8.28,0,0,0,5.56,1.87c2.08,0,3.68-.54,3.68-1.67S100,28.3,97.31,28.09c-3.07-.23-6-.95-6-3.35,0-2.2,2.26-3.56,6.05-3.56A10.22,10.22,0,0,1,103.15,23l-1.26,1.57a7.5,7.5,0,0,0-4.65-1.48c-1.52,0-3.64.31-3.64,1.54s1.79,1.36,4.1,1.5C101.16,26.35,103.71,27.29,103.71,29.58Z" transform="translate(-0.1 -1.52)" fill="#1d1d1b"/><circle cx="7.61" cy="24.17" r="7.61" fill="#36692c"/><circle cx="40.91" cy="27.21" r="4.57" fill="#ffe632"/><g opacity="0.75"><circle cx="25.79" cy="25.69" r="6.09" fill="#36692c"/></g><path d="M6.31,39.64,4.94,43.37H4.47l-1.2-3.19-1.2,3.19H1.59L.23,39.64H.72l1.12,3.18L3,39.64H3.5l1.2,3.18,1.13-3.18Z" transform="translate(-0.1 -1.52)"/><path d="M10.68,43v.42H7.08V39.64h3.55v.42H7.53v1.21h2.63v.41H7.53V43Z" transform="translate(-0.1 -1.52)"/><path d="M15.59,42.35c0,.68-.54,1-1.4,1H11.6V39.64h2.48c.76,0,1.29.32,1.29.95a.82.82,0,0,1-.8.86C15.16,41.49,15.59,41.72,15.59,42.35ZM12,41.26h2c.53,0,.91-.14.91-.61S14.55,40,14,40H12Zm3.08,1.05c0-.46-.38-.65-1-.65H12V43h2.06C14.75,43,15.12,42.77,15.12,42.31Z" transform="translate(-0.1 -1.52)"/><path d="M22.27,41.5c0,1.14-.87,1.86-2.23,1.86H18.23V39.64H20C21.4,39.64,22.27,40.36,22.27,41.5Zm-.46,0c0-1-.75-1.45-1.81-1.45H18.67V43H20C21.06,43,21.81,42.46,21.81,41.5Z" transform="translate(-0.1 -1.52)"/><path d="M26.83,43v.42h-3.6V39.64h3.55v.42h-3.1v1.21H26.3v.41H23.67V43Z" transform="translate(-0.1 -1.52)"/><path d="M31.46,42.29c0,.69-.7,1.19-1.91,1.19a3.28,3.28,0,0,1-2.18-.77l.31-.33a2.69,2.69,0,0,0,1.89.69c.9,0,1.43-.28,1.43-.74s-.55-.56-1.55-.65-1.95-.3-1.95-1,.88-1.1,1.88-1.1a2.86,2.86,0,0,1,1.9.67l-.35.3a2.17,2.17,0,0,0-1.53-.55c-.66,0-1.44.18-1.44.67s.7.56,1.58.63C30.67,41.34,31.46,41.55,31.46,42.29Z" transform="translate(-0.1 -1.52)"/><path d="M32.33,43.37V39.64h.45v3.72Z" transform="translate(-0.1 -1.52)"/><path d="M38.11,42.46a2.27,2.27,0,0,1-2.09,1c-1.44,0-2.29-.76-2.29-2s.85-2,2.28-2a2.38,2.38,0,0,1,1.89.78l-.39.27A1.8,1.8,0,0,0,36,39.95c-1.11,0-1.82.53-1.82,1.56s.71,1.56,1.85,1.56a1.71,1.71,0,0,0,1.62-.73v-.48H36v-.42h2.14Z" transform="translate(-0.1 -1.52)"/><path d="M43,39.64v3.72h-.39l-3.13-3.15v3.15H39V39.64h.48l3,3.07V39.64Z" transform="translate(-0.1 -1.52)"/><path d="M49.35,43.37l-.4-.29a2.33,2.33,0,0,1-1.43.4c-1.06,0-1.86-.54-1.86-1.24a1.15,1.15,0,0,1,.77-1,.87.87,0,0,1-.32-.67c0-.61.56-1,1.37-1a1.59,1.59,0,0,1,1.57,1l-.39.16a1.16,1.16,0,0,0-1.19-.74c-.57,0-.9.23-.9.58s.32.53.78.87l1.55,1.14a1.49,1.49,0,0,0,.27-.91h.44a1.89,1.89,0,0,1-.37,1.16l.8.58Zm-.75-.55-1.7-1.25-.17-.12a.83.83,0,0,0-.61.76c0,.6.68.86,1.43.86A2,2,0,0,0,48.6,42.82Z" transform="translate(-0.1 -1.52)"/><path d="M56.44,41.5c0,1.14-.87,1.86-2.24,1.86H52.4V39.64h1.81C55.57,39.64,56.44,40.36,56.44,41.5Zm-.46,0c0-1-.75-1.45-1.81-1.45H52.84V43h1.33C55.23,43,56,42.46,56,41.5Z" transform="translate(-0.1 -1.52)"/><path d="M61,43v.42H57.4V39.64h3.55v.42h-3.1v1.21h2.63v.41H57.84V43Z" transform="translate(-0.1 -1.52)"/><path d="M61.89,39.64l1.72,3.24,1.72-3.24h.49l-2,3.72h-.49l-2-3.72Z" transform="translate(-0.1 -1.52)"/><path d="M70.12,43v.42h-3.6V39.64h3.55v.42H67v1.21H69.6v.41H67V43Z" transform="translate(-0.1 -1.52)"/><path d="M74.34,43v.42H71V39.64h.45V43Z" transform="translate(-0.1 -1.52)"/><path d="M74.54,41.5c0-1.21.85-2,2.27-2s2.27.76,2.27,2-.85,2-2.27,2S74.54,42.72,74.54,41.5Zm4.07,0c0-1-.71-1.56-1.81-1.56S75,40.5,75,41.5s.71,1.56,1.81,1.56S78.62,42.51,78.62,41.5Z" transform="translate(-0.1 -1.52)"/><path d="M83.94,40.82c0,.74-.57,1.18-1.43,1.18h-2v1.36H80V39.64h2.49C83.37,39.64,83.94,40.08,83.94,40.82Zm-.46,0c0-.52-.39-.77-1-.77h-2v1.53h2C83.09,41.59,83.49,41.35,83.49,40.82Z" transform="translate(-0.1 -1.52)"/><path d="M89.49,39.64v3.72H89v-3.1l-1.89,2.29h0l-1.89-2.29v3.1h-.44V39.64h.49l1.87,2.28L89,39.64Z" transform="translate(-0.1 -1.52)"/><path d="M94.32,43v.42h-3.6V39.64h3.55v.42h-3.1v1.21H93.8v.41H91.17V43Z" transform="translate(-0.1 -1.52)"/><path d="M99.2,39.64v3.72h-.39l-3.13-3.15v3.15h-.44V39.64h.48l3,3.07V39.64Z" transform="translate(-0.1 -1.52)"/><path d="M103.9,40h-1.76v3.32h-.45V40H99.93v-.4h4Z" transform="translate(-0.1 -1.52)"/></svg>